<svg xmlns="http://www.w3.org/2000/svg" xmlns:xlink="http://www.w3.org/1999/xlink" contentStyleType="text/css" data-diagram-type="CLASS" height="1097px" preserveAspectRatio="none" style="width:635px;height:1097px;background:#FFFFFF;" version="1.1" viewBox="0 0 635 1097" width="635px" zoomAndPan="magnify"><?plantuml 1.2026.5?><defs/><g><g class="title" data-source-line="1"><text fill="#000000" font-family="sans-serif" font-size="14" font-weight="700" lengthAdjust="spacing" textLength="452.7031" x="88.1465" y="22.9951">Figura 1 - Diagrama de Classes de Projeto: Agendamento</text></g><!--class Paciente--><g class="entity" data-qualified-name="Paciente" data-source-line="18" id="ent0001"><rect fill="#FFFFFF" height="165.6875" rx="2.5" ry="2.5" style="stroke:#000000;stroke-width:0.5;" width="226.1602" x="7" y="487.7269"/><ellipse cx="90.2813" cy="506.6956" fill="#ADD1B2" rx="10" ry="10" style="stroke:#181818;stroke-width:1;"/><path d="M92.1094,510.9456 Q91.7031,511.1487 91.25,511.2581 Q90.7969,511.3675 90.3125,511.3675 Q88.5313,511.3675 87.5938,510.2112 Q86.6719,509.0394 86.6719,506.8362 Q86.6719,504.6175 87.5938,503.4612 Q88.5313,502.2894 90.3125,502.2894 Q90.7969,502.2894 91.25,502.3987 Q91.7188,502.4925 92.1094,502.7112 L92.1094,504.6331 Q91.6719,504.2269 91.25,504.0394 Q90.8281,503.8362 90.3906,503.8362 Q89.4375,503.8362 88.9531,504.6019 Q88.4688,505.3519 88.4688,506.8362 Q88.4688,508.305 88.9531,509.055 Q89.4375,509.805 90.3906,509.805 Q90.8281,509.805 91.25,509.6175 Q91.6719,509.43 92.1094,509.0237 L92.1094,510.9456 Z " fill="#000000"/><text fill="#000000" font-family="sans-serif" font-size="12" font-style="italic" lengthAdjust="spacing" textLength="49.5176" x="110.3213" y="503.8655">&#171;entity&#187;</text><text fill="#000000" font-family="sans-serif" font-size="12" lengthAdjust="spacing" textLength="51.5977" x="109.2813" y="517.8343">Paciente</text><line style="stroke:#000000;stroke-width:0.5;" x1="8" x2="232.1602" y1="525.6644" y2="525.6644"/><text fill="#000000" font-family="sans-serif" font-size="12" lengthAdjust="spacing" textLength="52.3887" x="13" y="540.803">-id: Long</text><text fill="#000000" font-family="sans-serif" font-size="12" lengthAdjust="spacing" textLength="139.8105" x="13" y="554.7718">-nomeCompleto: String</text><text fill="#000000" font-family="sans-serif" font-size="12" lengthAdjust="spacing" textLength="66.4395" x="13" y="568.7405">-cpf: String</text><text fill="#000000" font-family="sans-serif" font-size="12" lengthAdjust="spacing" textLength="170.4492" x="13" y="582.7093">-dataNascimento: LocalDate</text><text fill="#000000" font-family="sans-serif" font-size="12" lengthAdjust="spacing" textLength="107.7598" x="13" y="596.678">-cartaoSus: String</text><text fill="#000000" font-family="sans-serif" font-size="12" lengthAdjust="spacing" textLength="122.8359" x="13" y="610.6468">-idPlanoSaude: Long</text><line style="stroke:#000000;stroke-width:1;" x1="8" x2="232.1602" y1="617.4769" y2="617.4769"/><text fill="#000000" font-family="sans-serif" font-size="12" lengthAdjust="spacing" textLength="142.7461" x="13" y="632.6155">+atualizarDados(): void</text><text fill="#000000" font-family="sans-serif" font-size="12" lengthAdjust="spacing" textLength="214.1602" x="13" y="646.5843">+buscarHistorico(): List&lt;Consulta&gt;</text></g><!--class Medico--><g class="entity" data-qualified-name="Medico" data-source-line="30" id="ent0002"><rect fill="#FFFFFF" height="137.75" rx="2.5" ry="2.5" style="stroke:#000000;stroke-width:0.5;" width="345.8262" x="275.17" y="44.2969"/><ellipse cx="421.3243" cy="63.2656" fill="#ADD1B2" rx="10" ry="10" style="stroke:#181818;stroke-width:1;"/><path d="M423.1524,67.5156 Q422.7462,67.7188 422.293,67.8281 Q421.8399,67.9375 421.3555,67.9375 Q419.5743,67.9375 418.6368,66.7813 Q417.7149,65.6094 417.7149,63.4063 Q417.7149,61.1875 418.6368,60.0313 Q419.5743,58.8594 421.3555,58.8594 Q421.8399,58.8594 422.293,58.9688 Q422.7618,59.0625 423.1524,59.2813 L423.1524,61.2031 Q422.7149,60.7969 422.293,60.6094 Q421.8712,60.4063 421.4337,60.4063 Q420.4805,60.4063 419.9962,61.1719 Q419.5118,61.9219 419.5118,63.4063 Q419.5118,64.875 419.9962,65.625 Q420.4805,66.375 421.4337,66.375 Q421.8712,66.375 422.293,66.1875 Q422.7149,66 423.1524,65.5938 L423.1524,67.5156 Z " fill="#000000"/><text fill="#000000" font-family="sans-serif" font-size="12" font-style="italic" lengthAdjust="spacing" textLength="49.5176" x="438.3243" y="60.4355">&#171;entity&#187;</text><text fill="#000000" font-family="sans-serif" font-size="12" lengthAdjust="spacing" textLength="42.627" x="441.7696" y="74.4043">Medico</text><line style="stroke:#000000;stroke-width:0.5;" x1="276.17" x2="619.9962" y1="82.2344" y2="82.2344"/><text fill="#000000" font-family="sans-serif" font-size="12" lengthAdjust="spacing" textLength="52.3887" x="281.17" y="97.373">-id: Long</text><text fill="#000000" font-family="sans-serif" font-size="12" lengthAdjust="spacing" textLength="139.8105" x="281.17" y="111.3418">-nomeCompleto: String</text><text fill="#000000" font-family="sans-serif" font-size="12" lengthAdjust="spacing" textLength="71.2207" x="281.17" y="125.3105">-crm: String</text><text fill="#000000" font-family="sans-serif" font-size="12" lengthAdjust="spacing" textLength="130.5586" x="281.17" y="139.2793">-especialidade: String</text><line style="stroke:#000000;stroke-width:1;" x1="276.17" x2="619.9962" y1="146.1094" y2="146.1094"/><text fill="#000000" font-family="sans-serif" font-size="12" lengthAdjust="spacing" textLength="333.8262" x="281.17" y="161.248">+validarDisponibilidade(data: LocalDateTime): Boolean</text><text fill="#000000" font-family="sans-serif" font-size="12" lengthAdjust="spacing" textLength="251.2969" x="281.17" y="175.2168">+definirGrade(grade: GradeHorario): void</text></g><!--class GradeHorario--><g class="entity" data-qualified-name="GradeHorario" data-source-line="40" id="ent0003"><rect fill="#FFFFFF" height="165.6875" rx="2.5" ry="2.5" style="stroke:#000000;stroke-width:0.5;" width="209.0918" x="245.53" y="252.0469"/><ellipse cx="305.6521" cy="271.0156" fill="#ADD1B2" rx="10" ry="10" style="stroke:#181818;stroke-width:1;"/><path d="M307.4802,275.2656 Q307.0739,275.4687 306.6208,275.5781 Q306.1677,275.6875 305.6833,275.6875 Q303.9021,275.6875 302.9646,274.5312 Q302.0427,273.3594 302.0427,271.1562 Q302.0427,268.9375 302.9646,267.7812 Q303.9021,266.6094 305.6833,266.6094 Q306.1677,266.6094 306.6208,266.7187 Q307.0896,266.8125 307.4802,267.0312 L307.4802,268.9531 Q307.0427,268.5469 306.6208,268.3594 Q306.1989,268.1562 305.7614,268.1562 Q304.8083,268.1562 304.3239,268.9219 Q303.8396,269.6719 303.8396,271.1562 Q303.8396,272.625 304.3239,273.375 Q304.8083,274.125 305.7614,274.125 Q306.1989,274.125 306.6208,273.9375 Q307.0427,273.75 307.4802,273.3437 L307.4802,275.2656 Z " fill="#000000"/><text fill="#000000" font-family="sans-serif" font-size="12" font-style="italic" lengthAdjust="spacing" textLength="49.5176" x="340.3171" y="268.1855">&#171;entity&#187;</text><text fill="#000000" font-family="sans-serif" font-size="12" lengthAdjust="spacing" textLength="80.8477" x="324.6521" y="282.1543">GradeHorario</text><line style="stroke:#000000;stroke-width:0.5;" x1="246.53" x2="453.6218" y1="289.9844" y2="289.9844"/><text fill="#000000" font-family="sans-serif" font-size="12" lengthAdjust="spacing" textLength="52.3887" x="251.53" y="305.123">-id: Long</text><text fill="#000000" font-family="sans-serif" font-size="12" lengthAdjust="spacing" textLength="115.3066" x="251.53" y="319.0918">-diaSemana: String</text><text fill="#000000" font-family="sans-serif" font-size="12" lengthAdjust="spacing" textLength="132.2227" x="251.53" y="333.0605">-horaInicio: LocalTime</text><text fill="#000000" font-family="sans-serif" font-size="12" lengthAdjust="spacing" textLength="122.3965" x="251.53" y="347.0293">-horaFim: LocalTime</text><text fill="#000000" font-family="sans-serif" font-size="12" lengthAdjust="spacing" textLength="174.3516" x="251.53" y="360.998">-duracaoSlotMinutos: Integer</text><text fill="#000000" font-family="sans-serif" font-size="12" lengthAdjust="spacing" textLength="90.627" x="251.53" y="374.9668">-ativa: Boolean</text><line style="stroke:#000000;stroke-width:1;" x1="246.53" x2="453.6218" y1="381.7969" y2="381.7969"/><text fill="#000000" font-family="sans-serif" font-size="12" lengthAdjust="spacing" textLength="197.0918" x="251.53" y="396.9355">+gerarSlots(): List&lt;SlotHorario&gt;</text><text fill="#000000" font-family="sans-serif" font-size="12" lengthAdjust="spacing" textLength="108.7031" x="251.53" y="410.9043">+desativar(): void</text></g><!--class SlotHorario--><g class="entity" data-qualified-name="SlotHorario" data-source-line="52" id="ent0004"><rect fill="#FFFFFF" height="137.75" rx="2.5" ry="2.5" style="stroke:#000000;stroke-width:0.5;" width="145.4648" x="293.35" y="501.6969"/><ellipse cx="329.0423" cy="520.6656" fill="#ADD1B2" rx="10" ry="10" style="stroke:#181818;stroke-width:1;"/><path d="M330.8704,524.9156 Q330.4642,525.1187 330.011,525.2281 Q329.5579,525.3375 329.0735,525.3375 Q327.2923,525.3375 326.3548,524.1812 Q325.4329,523.0094 325.4329,520.8062 Q325.4329,518.5875 326.3548,517.4312 Q327.2923,516.2594 329.0735,516.2594 Q329.5579,516.2594 330.011,516.3687 Q330.4798,516.4625 330.8704,516.6812 L330.8704,518.6031 Q330.4329,518.1969 330.011,518.0094 Q329.5892,517.8062 329.1517,517.8062 Q328.1985,517.8062 327.7142,518.5719 Q327.2298,519.3219 327.2298,520.8062 Q327.2298,522.275 327.7142,523.025 Q328.1985,523.775 329.1517,523.775 Q329.5892,523.775 330.011,523.5875 Q330.4329,523.4 330.8704,522.9937 L330.8704,524.9156 Z " fill="#000000"/><text fill="#000000" font-family="sans-serif" font-size="12" font-style="italic" lengthAdjust="spacing" textLength="49.5176" x="355.7339" y="517.8355">&#171;entity&#187;</text><text fill="#000000" font-family="sans-serif" font-size="12" lengthAdjust="spacing" textLength="67.2598" x="346.8628" y="531.8043">SlotHorario</text><line style="stroke:#000000;stroke-width:0.5;" x1="294.35" x2="437.8148" y1="539.6344" y2="539.6344"/><text fill="#000000" font-family="sans-serif" font-size="12" lengthAdjust="spacing" textLength="52.3887" x="299.35" y="554.773">-id: Long</text><text fill="#000000" font-family="sans-serif" font-size="12" lengthAdjust="spacing" textLength="133.4648" x="299.35" y="568.7418">-inicio: LocalDateTime</text><text fill="#000000" font-family="sans-serif" font-size="12" lengthAdjust="spacing" textLength="121.166" x="299.35" y="582.7105">-fim: LocalDateTime</text><text fill="#000000" font-family="sans-serif" font-size="12" lengthAdjust="spacing" textLength="86.8652" x="299.35" y="596.6793">-livre: Boolean</text><line style="stroke:#000000;stroke-width:1;" x1="294.35" x2="437.8148" y1="603.5094" y2="603.5094"/><text fill="#000000" font-family="sans-serif" font-size="12" lengthAdjust="spacing" textLength="102.9434" x="299.35" y="618.648">+reservar(): void</text><text fill="#000000" font-family="sans-serif" font-size="12" lengthAdjust="spacing" textLength="91.5586" x="299.35" y="632.6168">+liberar(): void</text></g><!--class Consulta--><g class="entity" data-qualified-name="Consulta" data-source-line="62" id="ent0005"><rect fill="#FFFFFF" height="165.6875" rx="2.5" ry="2.5" style="stroke:#000000;stroke-width:0.5;" width="244.4648" x="243.85" y="723.4169"/><ellipse cx="335.7943" cy="742.3856" fill="#ADD1B2" rx="10" ry="10" style="stroke:#181818;stroke-width:1;"/><path d="M337.6225,746.6356 Q337.2162,746.8387 336.7631,746.9481 Q336.31,747.0575 335.8256,747.0575 Q334.0443,747.0575 333.1068,745.9012 Q332.185,744.7294 332.185,742.5262 Q332.185,740.3075 333.1068,739.1512 Q334.0443,737.9794 335.8256,737.9794 Q336.31,737.9794 336.7631,738.0887 Q337.2318,738.1825 337.6225,738.4012 L337.6225,740.3231 Q337.185,739.9169 336.7631,739.7294 Q336.3412,739.5262 335.9037,739.5262 Q334.9506,739.5262 334.4662,740.2919 Q333.9818,741.0419 333.9818,742.5262 Q333.9818,743.995 334.4662,744.745 Q334.9506,745.495 335.9037,745.495 Q336.3412,745.495 336.7631,745.3075 Q337.185,745.12 337.6225,744.7137 L337.6225,746.6356 Z " fill="#000000"/><text fill="#000000" font-family="sans-serif" font-size="12" font-style="italic" lengthAdjust="spacing" textLength="49.5176" x="356.3236" y="739.5555">&#171;entity&#187;</text><text fill="#000000" font-family="sans-serif" font-size="12" lengthAdjust="spacing" textLength="52.5762" x="354.7943" y="753.5243">Consulta</text><line style="stroke:#000000;stroke-width:0.5;" x1="244.85" x2="487.3148" y1="761.3544" y2="761.3544"/><text fill="#000000" font-family="sans-serif" font-size="12" lengthAdjust="spacing" textLength="52.3887" x="249.85" y="776.493">-id: Long</text><text fill="#000000" font-family="sans-serif" font-size="12" lengthAdjust="spacing" textLength="189.3516" x="249.85" y="790.4618">-dataHoraInicio: LocalDateTime</text><text fill="#000000" font-family="sans-serif" font-size="12" lengthAdjust="spacing" textLength="179.5254" x="249.85" y="804.4305">-dataHoraFim: LocalDateTime</text><text fill="#000000" font-family="sans-serif" font-size="12" lengthAdjust="spacing" textLength="139.875" x="249.85" y="818.3993">-status: StatusConsulta</text><text fill="#000000" font-family="sans-serif" font-size="12" lengthAdjust="spacing" textLength="89.5137" x="249.85" y="832.368">-motivo: String</text><line style="stroke:#000000;stroke-width:1;" x1="244.85" x2="487.3148" y1="839.1981" y2="839.1981"/><text fill="#000000" font-family="sans-serif" font-size="12" lengthAdjust="spacing" textLength="158.7422" x="249.85" y="854.3368">+confirmarCheckIn(): void</text><text fill="#000000" font-family="sans-serif" font-size="12" lengthAdjust="spacing" textLength="189.0117" x="249.85" y="868.3055">+cancelar(motivo: String): void</text><text fill="#000000" font-family="sans-serif" font-size="12" lengthAdjust="spacing" textLength="232.4648" x="249.85" y="882.2743">+remarcar(data: LocalDateTime): void</text></g><!--class RegistroCheckin--><g class="entity" data-qualified-name="RegistroCheckin" data-source-line="74" id="ent0006"><rect fill="#FFFFFF" height="123.7813" rx="2.5" ry="2.5" style="stroke:#000000;stroke-width:0.5;" width="217.4531" x="257.35" y="959.1069"/><ellipse cx="313.1977" cy="978.0756" fill="#ADD1B2" rx="10" ry="10" style="stroke:#181818;stroke-width:1;"/><path d="M315.0258,982.3256 Q314.6195,982.5288 314.1664,982.6381 Q313.7133,982.7475 313.2289,982.7475 Q311.4477,982.7475 310.5102,981.5913 Q309.5883,980.4194 309.5883,978.2163 Q309.5883,975.9975 310.5102,974.8413 Q311.4477,973.6694 313.2289,973.6694 Q313.7133,973.6694 314.1664,973.7788 Q314.6352,973.8725 315.0258,974.0913 L315.0258,976.0131 Q314.5883,975.6069 314.1664,975.4194 Q313.7445,975.2163 313.307,975.2163 Q312.3539,975.2163 311.8695,975.9819 Q311.3852,976.7319 311.3852,978.2163 Q311.3852,979.685 311.8695,980.435 Q312.3539,981.185 313.307,981.185 Q313.7445,981.185 314.1664,980.9975 Q314.5883,980.81 315.0258,980.4038 L315.0258,982.3256 Z " fill="#000000"/><text fill="#000000" font-family="sans-serif" font-size="12" font-style="italic" lengthAdjust="spacing" textLength="49.5176" x="356.3178" y="975.2455">&#171;entity&#187;</text><text fill="#000000" font-family="sans-serif" font-size="12" lengthAdjust="spacing" textLength="97.7578" x="332.1977" y="989.2143">RegistroCheckin</text><line style="stroke:#000000;stroke-width:0.5;" x1="258.35" x2="473.8031" y1="997.0444" y2="997.0444"/><text fill="#000000" font-family="sans-serif" font-size="12" lengthAdjust="spacing" textLength="52.3887" x="263.35" y="1012.183">-id: Long</text><text fill="#000000" font-family="sans-serif" font-size="12" lengthAdjust="spacing" textLength="205.4531" x="263.35" y="1026.1518">-dataHoraCheckin: LocalDateTime</text><text fill="#000000" font-family="sans-serif" font-size="12" lengthAdjust="spacing" textLength="140.2031" x="263.35" y="1040.1205">-origemRegistro: String</text><text fill="#000000" font-family="sans-serif" font-size="12" lengthAdjust="spacing" textLength="117.2754" x="263.35" y="1054.0893">-observacao: String</text><line style="stroke:#000000;stroke-width:1;" x1="258.35" x2="473.8031" y1="1060.9194" y2="1060.9194"/><text fill="#000000" font-family="sans-serif" font-size="12" lengthAdjust="spacing" textLength="104.1152" x="263.35" y="1076.058">+registrar(): void</text></g><!--link Paciente to Consulta--><g class="link" data-entity-1="ent0001" data-entity-2="ent0005" data-link-type="dependency" data-source-line="83" id="lnk7"><path codeLine="83" d="M233.28,646.8869 C254.12,646.8869 269.44,646.8869 269.44,646.8869 C269.44,646.8869 269.44,679.5769 269.44,718.3069" fill="none" id="Paciente-to-Consulta" style="stroke:#000000;stroke-width:1;"/><polygon fill="#000000" points="269.44,723.3069,273.44,714.3069,269.44,718.3069,265.44,714.3069,269.44,723.3069" style="stroke:#000000;stroke-width:1;stroke-linejoin:miter;stroke-miterlimit:10;"/><text fill="#000000" font-family="sans-serif" font-size="12" lengthAdjust="spacing" textLength="44.9297" x="224.44" y="679.1555">agenda</text><text fill="#000000" font-family="sans-serif" font-size="12" lengthAdjust="spacing" textLength="7.6348" x="241.1421" y="649.7489">1</text><text fill="#000000" font-family="sans-serif" font-size="12" lengthAdjust="spacing" textLength="21.2637" x="237.9061" y="712.6876">0..*</text></g><!--link Medico to Consulta--><g class="link" data-entity-1="ent0002" data-entity-2="ent0005" data-link-type="dependency" data-source-line="84" id="lnk8"><path codeLine="84" d="M471.47,182.4769 C471.47,310.7869 471.47,579.8069 471.47,717.9669" fill="none" id="Medico-to-Consulta" style="stroke:#000000;stroke-width:1;"/><polygon fill="#000000" points="471.47,722.9669,475.47,713.9669,471.47,717.9669,467.47,713.9669,471.47,722.9669" style="stroke:#000000;stroke-width:1;stroke-linejoin:miter;stroke-miterlimit:10;"/><text fill="#000000" font-family="sans-serif" font-size="12" lengthAdjust="spacing" textLength="39.9902" x="431.47" y="449.8555">realiza</text><text fill="#000000" font-family="sans-serif" font-size="12" lengthAdjust="spacing" textLength="7.6348" x="466.4589" y="201.1253">1</text><text fill="#000000" font-family="sans-serif" font-size="12" lengthAdjust="spacing" textLength="21.2637" x="459.5265" y="712.5932">0..*</text></g><!--reverse link Medico to GradeHorario--><g class="link" data-entity-1="ent0002" data-entity-2="ent0003" data-link-type="composition" data-source-line="85" id="lnk9"><path codeLine="85" d="M364.9,194.4069 C364.9,216.3869 364.9,228.9269 364.9,251.7769" fill="none" id="Medico-backto-GradeHorario" style="stroke:#000000;stroke-width:1;"/><polygon fill="#000000" points="364.9,182.4069,360.9,188.4069,364.9,194.4069,368.9,188.4069,364.9,182.4069" style="stroke:#000000;stroke-width:1;stroke-linejoin:miter;stroke-miterlimit:10;"/><text fill="#000000" font-family="sans-serif" font-size="12" lengthAdjust="spacing" textLength="37.5469" x="326.9" y="214.2355">define</text><text fill="#000000" font-family="sans-serif" font-size="12" lengthAdjust="spacing" textLength="7.6348" x="348.9935" y="201.4057">1</text><text fill="#000000" font-family="sans-serif" font-size="12" lengthAdjust="spacing" textLength="21.2637" x="344.3386" y="241.1419">0..*</text></g><!--reverse link GradeHorario to SlotHorario--><g class="link" data-entity-1="ent0003" data-entity-2="ent0004" data-link-type="composition" data-source-line="86" id="lnk10"><path codeLine="86" d="M366.08,429.9769 C366.08,457.2869 366.08,475.3169 366.08,501.4669" fill="none" id="GradeHorario-backto-SlotHorario" style="stroke:#000000;stroke-width:1;"/><polygon fill="#000000" points="366.08,417.9769,362.08,423.9769,366.08,429.9769,370.08,423.9769,366.08,417.9769" style="stroke:#000000;stroke-width:1;stroke-linejoin:miter;stroke-miterlimit:10;"/><text fill="#000000" font-family="sans-serif" font-size="12" lengthAdjust="spacing" textLength="45.3223" x="320.08" y="456.8655">cont&#233;m</text><text fill="#000000" font-family="sans-serif" font-size="12" lengthAdjust="spacing" textLength="7.6348" x="360.1818" y="436.856">1</text><text fill="#000000" font-family="sans-serif" font-size="12" lengthAdjust="spacing" textLength="21.2637" x="343.8809" y="490.9197">0..*</text></g><!--link SlotHorario to Consulta--><g class="link" data-entity-1="ent0004" data-entity-2="ent0005" data-link-type="dependency" data-source-line="87" id="lnk11"><path codeLine="87" d="M366.08,639.6969 C366.08,665.7769 366.08,690.7169 366.08,717.9569" fill="none" id="SlotHorario-to-Consulta" style="stroke:#000000;stroke-width:1;"/><polygon fill="#000000" points="366.08,722.9569,370.08,713.9569,366.08,717.9569,362.08,713.9569,366.08,722.9569" style="stroke:#000000;stroke-width:1;stroke-linejoin:miter;stroke-miterlimit:10;"/><text fill="#000000" font-family="sans-serif" font-size="12" lengthAdjust="spacing" textLength="42.9316" x="323.08" y="678.4655">vincula</text><text fill="#000000" font-family="sans-serif" font-size="12" lengthAdjust="spacing" textLength="7.6348" x="358.7515" y="658.6843">1</text><text fill="#000000" font-family="sans-serif" font-size="12" lengthAdjust="spacing" textLength="22.8984" x="343.0741" y="712.5823">0..1</text></g><!--reverse link Consulta to RegistroCheckin--><g class="link" data-entity-1="ent0005" data-entity-2="ent0006" data-link-type="composition" data-source-line="88" id="lnk12"><path codeLine="88" d="M366.08,901.5869 C366.08,924.5769 366.08,937.1169 366.08,958.6869" fill="none" id="Consulta-backto-RegistroCheckin" style="stroke:#000000;stroke-width:1;"/><polygon fill="#000000" points="366.08,889.5869,362.08,895.5869,366.08,901.5869,370.08,895.5869,366.08,889.5869" style="stroke:#000000;stroke-width:1;stroke-linejoin:miter;stroke-miterlimit:10;"/><text fill="#000000" font-family="sans-serif" font-size="12" lengthAdjust="spacing" textLength="46.5117" x="319.08" y="921.2755">registra</text><text fill="#000000" font-family="sans-serif" font-size="12" lengthAdjust="spacing" textLength="7.6348" x="358.8162" y="908.2044">1</text><text fill="#000000" font-family="sans-serif" font-size="12" lengthAdjust="spacing" textLength="22.8984" x="342.7286" y="948.0712">0..1</text></g><?plantuml-src fLN1Rjim3BtxAuIUkWufcXqs82W2j2cw1cY7OXcmCsCn3bTP32WvHJliW_OT-x7HZkqgRWjqM2wo-4YAxv5I8aM7vfAAIi2CpSXS41G29HYBPkOW10prvwtm3umyCMS5UWib-iXP5dbZ8fibnyYbiIIOHsAVPU6E_0OqZydh76Sn2YshYFES_O8UqPmaBc4Dbk_95sO5Bc22EF8O7pPeMEAQ4y3Y2YeNBzd79jtuGm9wjXXmOpwcXmZukzhuwUHPTUPdPlHt3lbT8LnvEsF7OhwlAU8EOR4eE-kvKxV6UYR2zwdnLvRjyjr2JYeGcjDJNIW-JAVj6ID3TcAksHVjrdE9CouthX5teJBrKBvP3ImM8do1a5CZVvqd1tS1RPKQ0HA15rKOn96zTU1v0PN5zFHHixmt42jmz0XoeOq8X-ycPijaMt1P1SrxHI6oKCurUgsRqndxe2s0wHFl6xJgyP-ifHnOC6mm9otGGbr-YdK4jWqg5nGsx6b9Ez_3Mgz4fM-gcrP_pkmGV1kgaqIUvBFK0OKqHpIRAnOGuawCdcGAle6g9LXW2Hu6hDQQOUuffwwFTNK9TadbSy3gBSsrmuxZ3VagidPwheDMeBGU46aB-nnxbTGBf8uDVHFhNSjbsWiIcYHo-8nwulq6vfIow_HliLNFRW0usWg-Kh_ehPQqi9tPqR8czhpSRaBVqYMTbAjXHmQbTJwNhzKUebwavkxLQtTw2vQielBBuwkFuega19cjCR-R-m7177oEJXdkvzXt4XqoqOlwoj3lA_CL2-s-S7CU-NyGg8ruMG1z80eik-I3WUTbqpqTtvT5a5tOVYFxb_HWVA2kKtDmSdnyTF3Ksec1vWyfQz-Ur_q4cpSkTJmQZJh7lLizsRqAcErP1n7fPPZKBOn_VfTPQarh6U_LiYMVLmwotfJcrizXVoQzEdy1?></g></svg>